<svg xmlns="http://www.w3.org/2000/svg" version="1.1" xmlns:xlink="http://www.w3.org/1999/xlink" xmlns:svgjs="http://svgjs.dev/svgjs" viewBox="0 0 640 800"><defs><linearGradient x1="50%" y1="0%" x2="50%" y2="100%" id="ccchaos-grad"><stop stop-color="hsl(206, 35%, 13%)" stop-opacity="1" offset="0%"></stop><stop stop-color="hsl(352, 90%, 56%)" stop-opacity="1" offset="100%"></stop></linearGradient></defs><g stroke-width="2" stroke="url(#ccchaos-grad)" fill="none" stroke-linecap="round"><path d="M298.03 81.52Q307.35 86.09 317.09 90.41 327.25 94.49 337.82 98.34 348.8 101.99 360.15 105.46 371.85 108.79 383.84 112 396.1 115.14 408.55 118.24 421.14 121.36 433.81 124.52 446.49 127.78 459.11 131.18 471.59 134.76 483.87 138.55 495.88 142.6 507.55 146.92 518.81 151.54 529.62 156.49 539.93 161.77 549.69 167.39 558.87 173.35 567.45 179.64 575.43 186.24 582.8 193.13 589.58 200.28 595.79 207.65 601.46 215.21 606.64 222.9 611.38 230.68 615.76 238.5 605.85 248.89 595.95 259.29 586.75 269.68 578.89 280.07 572.92 290.47 569.24 300.86 568.13 311.26 569.65 321.65 573.71 332.05 580.01 342.44 588.12 352.84 597.47 363.23 607.42 373.63 617.27 384.02 626.33 394.42 633.98 404.81 639.68 415.21 643.03 425.6 643.81 436 641.96 446.39 637.6 456.79 631.04 467.18 622.73 477.58 613.26 487.97 603.29 498.37 593.5 508.76 584.59 519.16 577.16 529.56 571.74 539.95 568.71 550.35 559.33 569.82 547.4 574.1 531.35 579.48 520.1 585.56 510.19 593.92 499.34 604.28 493.21 610.64 486.63 617.66 479.55 625.31 471.96 633.55 463.85 642.32 455.22 651.55 446.09 661.16 436.47 671.08 426.39 681.2 415.89 691.42 405.01 701.65 393.8 711.79 382.32 721.72 370.62 731.35 358.75 740.59 346.79 749.35 334.79 757.55 322.81 765.13 310.18 756.41 296.78 745.47 289.54 738.74 281.97 731.33 274.05 723.31 265.77 714.73 257.15 705.68 248.18 696.22 238.9 686.46 229.31 676.49 219.45 666.41 209.36 656.32 199.06 646.32 188.59 636.5 178 626.95 167.33 617.77 156.62 609.03 145.91 600.79 135.23 593.12 124.62 586.04 114.12 579.61 103.76 573.83 93.54 568.71 83.5 564.24 73.65 560.41 64 557.16 54.54 554.47 45.28 552.27 31.55 544.73 26.98 528.84 27.55 518.72 28.57 508.6 29.97 498.48 31.64 488.36 33.49 478.23 35.36 468.11 37.15 457.99 38.71 447.87 39.94 437.75 40.76 427.63 41.11 417.51 40.97 407.38 40.33 397.26 39.26 387.14 37.82 377.02 36.12 366.9 34.26 356.78 32.39 346.66 30.63 336.53 29.1 326.41 27.92 316.29 27.16 306.17 26.87 296.05 27.08 285.93 27.77 275.81 28.89 265.69 30.37 255.56 32.11 245.44 33.97 235.32 35.83 225.2 45.85 217.98 55.93 211.03 66.05 204.4 76.17 198.1 86.28 192.14 96.33 186.54 106.28 181.3 116.12 176.42 125.8 171.87 135.3 167.64 144.59 163.71 153.64 160.04 162.45 156.59 170.98 153.33 187.11 147.21 202.42 141.24 216.54 135.09 230.09 128.56 243.06 121.09 255.96 112.9 269.23 103.37 283.04 93.02 294.2 84.46 298.03 81.52" stroke-dasharray="7 10" transform="rotate(0, 320, 400)" opacity="0.51"></path><path d="M300.73 94.67Q310.6 99.04 320.83 103.17 331.4 107.07 342.3 110.76 353.5 114.24 364.96 117.56 376.64 120.72 388.49 123.78 400.46 126.75 412.5 129.68 424.55 132.6 436.54 135.55 448.42 138.58 460.13 141.73 471.6 145.02 482.78 148.5 493.61 152.2 504.04 156.15 514.04 160.37 523.56 164.88 532.58 169.71 541.06 174.85 549.01 180.32 556.41 186.11 563.28 192.21 569.62 198.6 580.62 212.29 590.36 226.62 594.63 234.06 598.64 241.59 589.19 251.52 580.11 261.45 571.98 271.38 565.34 281.31 560.61 291.24 558.09 301.17 557.95 311.1 560.19 321.03 564.68 330.96 571.11 340.89 579.09 350.83 588.09 360.76 597.53 370.69 606.81 380.62 615.33 390.55 622.54 400.48 627.98 410.41 631.29 420.34 632.27 430.27 630.84 440.2 627.11 450.13 621.31 460.06 613.81 469.99 605.1 479.93 595.74 489.86 586.34 499.79 577.49 509.72 569.77 519.65 563.67 529.58 559.59 539.51 546.82 558.23 533.5 562.7 516.75 569.33 505.52 576.4 496.39 585.46 486.7 596.36 481.37 602.88 475.7 609.99 469.64 617.65 463.17 625.82 456.25 634.44 448.87 643.44 441.03 652.76 432.74 662.32 423.99 672.04 414.8 681.82 405.21 691.58 395.24 701.22 384.93 710.66 374.32 719.81 363.45 728.59 352.37 736.92 341.14 744.74 329.8 751.99 316.64 743.64 302.54 733.28 294.9 726.93 286.92 719.97 278.6 712.43 269.95 704.37 260.99 695.85 251.73 686.94 242.21 677.72 232.44 668.27 222.47 658.68 212.33 649.03 202.06 639.42 191.7 629.93 181.28 620.63 170.84 611.62 160.42 602.96 150.05 594.72 139.77 586.95 129.6 579.7 119.57 573.01 109.69 566.9 100 561.39 90.49 556.49 81.17 552.17 72.05 548.43 63.12 545.24 54.38 542.55 41.55 534.56 37.66 519.13 38.51 509.45 39.77 499.77 41.37 490.09 43.2 480.41 45.15 470.73 47.09 461.05 48.89 451.37 50.44 441.69 51.64 432.01 52.42 422.33 52.71 412.65 52.51 402.97 51.82 393.29 50.7 383.61 49.21 373.93 47.44 364.25 45.52 354.57 43.56 344.89 41.7 335.21 40.05 325.53 38.72 315.85 37.79 306.17 37.32 296.49 37.35 286.82 37.88 277.14 38.86 267.46 40.23 257.78 41.91 248.1 43.79 238.42 45.75 228.74 55.42 222.08 65.17 215.71 74.98 209.66 84.83 203.95 94.68 198.57 104.52 193.53 114.3 188.83 124 184.45 133.58 180.37 143.02 176.58 152.29 173.05 161.36 169.73 170.21 166.6 178.82 163.62 195.14 157.95 210.65 152.35 224.87 146.46 238.39 140.18 251.01 132.94 263.28 125 275.42 115.78 287.74 105.77 297.43 97.5 300.73 94.67" stroke-dasharray="2 7" transform="rotate(4.04, 320, 400)" opacity="0.32"></path><path d="M305.47 107.81Q315.68 111.99 326.16 115.93 336.9 119.66 347.86 123.18 358.99 126.51 370.27 129.67 381.65 132.68 393.07 135.58 404.5 138.4 415.87 141.16 427.13 143.9 438.24 146.66 449.13 149.47 459.78 152.37 470.11 155.39 480.1 158.58 489.71 161.95 498.89 165.54 507.63 169.37 515.91 173.47 530.78 182.69 544.21 192.8 555.37 204.41 565.35 216.85 573.79 230.46 581.62 244.59 572.84 254.06 564.71 263.53 557.74 273 552.32 282.48 548.78 291.95 547.33 301.42 548.07 310.89 550.93 320.36 555.76 329.83 562.26 339.31 570.05 348.78 578.67 358.25 587.61 367.72 596.34 377.19 604.33 386.66 611.11 396.13 616.28 405.61 619.54 415.08 620.68 424.55 619.65 434.02 616.5 443.49 611.42 452.96 604.72 462.43 596.78 471.91 588.08 481.38 579.14 490.85 570.49 500.32 562.64 509.79 556.06 519.26 551.14 528.73 544.03 543.33 533.01 549.36 512.87 554.79 500.21 560.53 491.31 568 482.56 577.11 473.46 589 463.81 602.51 458.55 610.12 452.98 618.17 447.07 626.6 440.78 635.35 434.09 644.36 427.01 653.55 419.51 662.85 411.61 672.18 403.3 681.46 394.61 690.61 385.55 699.57 376.14 708.24 366.43 716.57 356.44 724.48 346.2 731.92 335.77 738.84 321.76 730.87 306.76 721.06 298.69 715.1 290.3 708.56 281.61 701.49 272.63 693.93 263.4 685.94 253.94 677.57 244.27 668.88 234.44 659.96 224.48 650.87 214.42 641.69 204.3 632.49 194.15 623.36 184 614.36 173.9 605.57 163.87 597.06 153.94 588.88 144.13 581.09 134.46 573.74 124.96 566.87 115.63 560.5 106.49 554.67 97.54 549.38 88.79 544.63 80.22 540.43 63.72 533.8 47.69 528.57 47.88 519.32 48.55 510.07 49.67 500.82 51.16 491.57 52.94 482.32 54.9 473.07 56.92 463.83 58.89 454.58 60.69 445.33 62.21 436.08 63.36 426.83 64.07 417.58 64.3 408.33 64.05 399.08 63.31 389.83 62.14 380.58 60.6 371.33 58.79 362.08 56.81 352.84 54.79 343.59 52.84 334.34 51.07 325.09 49.6 315.84 48.51 306.59 47.86 297.34 47.69 288.09 48.02 278.84 48.82 269.59 50.05 260.34 51.63 251.09 53.47 241.84 55.46 232.59 64.75 226.52 74.14 220.76 83.61 215.31 93.14 210.17 102.71 205.37 112.29 200.87 121.85 196.68 131.37 192.79 140.82 189.16 150.16 185.77 159.37 182.6 168.43 179.61 177.3 176.77 185.97 174.05 202.5 168.78 218.27 163.5 232.75 157.86 246.46 151.8 259.05 144.79 271.11 137.1 282.59 128.18 293.95 118.52 302.57 110.54 305.47 107.81" stroke-dasharray="6 7" transform="rotate(8.08, 320, 400)" opacity="0.57"></path><path d="M311.73 120.96Q322.03 124.95 332.51 128.71 343.12 132.26 353.85 135.62 364.64 138.8 375.46 141.81 386.27 144.68 397.01 147.43 407.65 150.09 418.14 152.69 428.44 155.27 438.51 157.84 448.3 160.45 457.79 163.12 466.94 165.89 475.71 168.8 491.86 175.22 506.74 182.29 519.5 190.61 531.02 199.76 540.74 210.34 549.56 221.74 557.35 234.38 564.84 247.61 556.91 256.63 549.85 265.64 544.06 274.66 539.84 283.68 537.43 292.7 536.96 301.72 538.46 310.74 541.84 319.76 546.92 328.77 553.43 337.79 561 346.81 569.22 355.83 577.65 364.85 585.83 373.87 593.3 382.88 599.67 391.9 604.59 400.92 607.78 409.94 609.07 418.96 608.39 427.98 605.79 436.99 601.4 446.01 595.45 455.03 588.29 464.05 580.28 473.07 571.89 482.08 563.55 491.1 555.72 500.12 548.84 509.14 543.28 518.16 534.38 532.16 522.1 538.28 509.06 541.45 497.25 545.62 487.1 551.86 477.67 559.52 468.92 569.69 460.27 581.36 451.26 595.37 441.77 610.59 436.64 618.8 431.23 627.26 425.52 635.93 419.48 644.73 413.1 653.6 406.36 662.48 399.26 671.28 391.8 679.96 383.98 688.43 375.82 696.64 367.33 704.52 358.52 712.02 341.12 720.7 325.24 718.37 317.36 713.87 309.17 708.82 300.7 703.22 291.96 697.1 282.98 690.48 273.79 683.41 264.41 675.93 254.86 668.09 245.2 659.94 235.43 651.54 225.61 642.96 215.76 634.26 205.91 625.5 196.09 616.76 186.34 608.1 176.67 599.58 167.12 591.27 157.7 583.22 148.44 575.48 139.34 568.1 130.41 561.12 121.68 554.57 113.13 548.49 104.77 542.89 96.59 537.77 88.59 533.15 73.17 525.6 58.17 519.42 58.69 510.59 59.66 501.76 61.03 492.93 62.73 484.1 64.66 475.27 66.71 466.44 68.78 457.61 70.76 448.78 72.52 439.95 73.99 431.12 75.07 422.29 75.71 413.46 75.88 404.63 75.56 395.8 74.77 386.97 73.56 378.14 71.99 369.31 70.15 360.48 68.13 351.65 66.05 342.82 64.03 333.99 62.16 325.16 60.56 316.33 59.3 307.5 58.47 298.67 58.1 289.84 58.22 281.01 58.81 272.18 59.85 263.35 61.28 254.52 63.02 245.69 64.97 236.86 73.86 231.4 82.86 226.24 91.96 221.38 101.14 216.83 110.38 212.57 119.66 208.59 128.95 204.89 138.24 201.45 147.5 198.23 156.69 195.21 165.8 192.38 174.79 189.69 183.65 187.11 192.34 184.61 209.04 179.7 225.08 174.71 239.89 169.29 253.95 163.44 266.78 156.65 278.95 149.2 290.22 140.59 301.12 131.27 309.09 123.59 311.73 120.96" stroke-dasharray="7 1" transform="rotate(12.12, 320, 400)" opacity="0.12"></path><path d="M318.86 134.11Q339.15 141.48 359.58 148.07 379.89 153.96 399.76 159.3 418.91 164.27 437.07 169.08 454.02 173.97 469.58 179.15 483.65 184.87 496.21 191.31 507.31 198.65 517.1 207 525.79 216.41 533.68 226.9 541.11 238.38 548.47 250.73 535.59 267.88 527.91 285.03 526.96 302.18 532.91 319.32 544.6 336.47 559.72 353.62 575.29 370.77 588.23 387.92 596.01 405.06 597.07 422.21 591.22 439.36 579.6 456.51 564.51 473.66 548.93 490.8 535.92 507.95 528.06 525.1 512.27 527.73 498.24 531.44 485.83 536.54 474.82 543.26 464.94 551.78 455.87 562.12 447.26 574.24 438.74 587.98 429.97 603.07 420.64 619.17 410.48 635.88 399.28 652.73 386.9 669.27 373.26 685.02 358.36 699.56 342.27 712.54 326.49 705.56 309.65 696.56 291.94 685.59 273.54 672.82 254.68 658.52 235.61 643.02 216.56 626.74 197.75 610.13 179.35 593.64 161.53 577.71 144.38 562.75 127.95 549.1 112.25 537 97.24 526.61 82.83 518 68.91 511.13 71.02 494.28 74.49 477.44 78.66 460.59 82.69 443.75 85.8 426.9 87.36 410.06 87.08 393.21 85 376.36 81.54 359.52 77.38 342.67 73.34 325.83 70.21 308.98 68.62 292.14 68.87 275.29 70.93 258.45 74.37 241.6 91.4 232.19 108.87 223.91 126.67 216.69 144.65 210.41 162.64 204.89 180.45 199.93 197.89 195.28 214.76 190.71 230.9 185.96 246.19 180.81 260.53 175.08 273.9 168.61 286.3 161.3 297.83 153.1 313.74 139.06 318.86 134.11" stroke-dasharray="11 9" transform="rotate(16.16, 320, 400)" opacity="0.32"></path><path d="M326.11 147.25Q345.37 154.26 364.42 160.52 383.01 166.13 400.9 171.2 417.89 175.89 433.77 180.39 448.43 184.9 461.77 189.64 473.79 194.79 484.53 200.56 494.1 207.1 502.69 214.54 510.54 222.95 517.93 232.37 525.18 242.77 532.64 254.07 521.98 270.35 516.54 286.63 517.3 302.91 524.12 319.18 535.78 335.46 550.18 351.74 564.72 368.02 576.8 384.3 584.23 400.58 585.68 416.85 580.89 433.13 570.72 449.41 557 465.69 542.2 481.96 528.98 498.24 519.73 514.52 503.46 517.8 488.77 522.24 475.62 528.07 463.87 535.46 453.32 544.48 443.75 555.14 434.88 567.34 426.41 580.91 418.04 595.59 409.48 611.07 400.46 626.99 390.75 642.94 380.17 658.54 368.58 673.37 355.9 687.1 342.12 699.4 325.59 692.75 308.28 684.29 290.38 674.05 272.09 662.16 253.64 648.85 235.24 634.39 217.08 619.12 199.33 603.43 182.13 587.7 165.57 572.32 149.71 557.65 134.56 544.01 120.09 531.66 106.23 520.77 92.89 511.45 79.96 503.73 82.63 487.68 86.44 471.62 90.72 455.57 94.68 439.52 97.62 423.46 99 407.41 98.58 391.36 96.44 375.31 92.95 359.25 88.75 343.2 84.59 327.14 81.22 311.09 79.25 295.04 79.03 278.98 80.61 262.93 83.68 246.88 99.8 238.65 116.4 231.44 133.39 225.16 150.65 219.67 168.05 214.79 185.43 210.33 202.6 206.06 219.4 201.76 235.65 197.23 251.21 192.27 265.94 186.72 279.78 180.45 292.68 173.38 304.66 165.48 320.94 152 326.11 147.25" stroke-dasharray="0 2" transform="rotate(20.200000000000003, 320, 400)" opacity="0.93"></path><path d="M332.72 160.4Q350.49 167.04 367.78 172.99 384.39 178.31 400.14 183.12 414.91 187.55 428.58 191.77 441.1 195.94 452.46 200.25 462.72 204.89 471.96 210.03 480.34 215.83 488.06 222.4 495.36 229.85 502.5 238.23 509.77 247.53 517.46 257.73 509.05 273.16 505.7 288.58 507.95 304.01 515.45 319.44 526.95 334.87 540.59 350.3 554.13 365.73 565.36 381.16 572.44 396.58 574.22 412.01 570.41 427.44 561.62 442.87 549.3 458.3 535.46 473.72 522.36 489.15 512.14 504.58 495.59 508.55 480.42 513.71 466.64 520.23 454.19 528.18 442.96 537.61 432.78 548.46 423.45 560.63 414.75 573.93 406.42 588.13 398.22 602.94 389.9 618.04 381.24 633.1 372.03 647.76 362.1 661.7 351.33 674.62 339.65 686.25 322.71 679.94 305.3 672 287.59 662.46 269.78 651.43 252.07 639.07 234.62 625.63 217.59 611.38 201.09 596.64 185.2 581.73 169.99 566.99 155.47 552.74 141.6 539.26 128.34 526.81 115.62 515.58 103.32 505.71 91.32 497.25 94.5 481.97 98.57 466.68 102.88 451.4 106.71 436.12 109.44 420.84 110.63 405.56 110.08 390.28 107.87 375 104.38 359.71 100.17 344.43 95.93 329.15 92.35 313.87 90.02 298.59 89.32 283.31 90.36 268.02 92.98 252.74 108.14 245.64 123.79 239.44 139.88 234.01 156.32 229.22 173 224.9 189.8 220.87 206.55 216.92 223.11 212.87 239.3 208.52 254.99 203.73 270.02 198.35 284.3 192.29 297.73 185.46 310.27 177.86 327.32 164.94 332.72 160.4" stroke-dasharray="2 0" transform="rotate(24.24, 320, 400)" opacity="0.74"></path><path d="M337.99 173.54Q353.94 179.83 369.24 185.46 383.74 190.51 397.34 195.07 409.97 199.25 421.6 203.2 432.23 207.06 441.91 210.99 450.72 215.16 458.81 219.73 466.33 224.83 473.48 230.6 480.49 237.14 487.59 244.5 495.01 252.72 503.01 261.79 496.82 276.39 495.37 290.99 498.9 305.59 506.87 320.19 518.11 334.79 530.95 349.39 543.51 363.99 553.92 378.59 560.65 393.19 562.71 407.78 559.78 422.38 552.31 436.98 541.39 451.58 528.64 466.18 515.95 480.78 505.18 495.37 488.55 500.05 473.09 505.89 458.85 513 445.82 521.41 433.95 531.12 423.13 542.05 413.24 554.07 404.12 567.02 395.56 580.67 387.38 594.77 379.36 609.04 371.3 623.2 363.01 636.94 354.31 650.01 345.05 662.13 335.11 673.11 318.19 667.12 301.09 659.69 283.98 650.82 267.01 640.62 250.34 629.2 234.09 616.76 218.37 603.52 203.25 589.74 188.77 575.7 174.95 561.68 161.76 547.95 149.16 534.78 137.09 522.4 125.44 511 114.13 500.72 103.03 491.67 106.63 477.14 110.87 462.61 115.13 448.09 118.77 433.56 121.27 419.03 122.24 404.5 121.56 389.97 119.31 375.45 115.83 360.92 111.64 346.39 107.35 331.86 103.6 317.34 100.93 302.81 99.76 288.28 100.24 273.75 102.31 259.22 116.47 253.17 131.12 247.87 146.23 243.21 161.75 239.04 177.59 235.21 193.66 231.53 209.82 227.86 225.94 224.01 241.89 219.83 257.52 215.19 272.69 209.98 287.27 204.11 301.16 197.54 314.27 190.24 332.27 177.88 337.99 173.54" stroke-dasharray="4 8" transform="rotate(28.28, 320, 400)" opacity="0.58"></path><path d="M341.36 186.69Q355.32 192.61 368.55 197.94 380.96 202.72 392.53 207.04 403.22 210.99 413.06 214.68 422.11 218.25 430.43 221.84 445.27 229.85 459.22 239.14 466.15 244.82 473.35 251.21 481.03 258.39 489.38 266.35 485.29 280.14 485.54 293.93 490.1 307.72 498.36 321.51 509.23 335.3 521.26 349.08 532.86 362.87 542.48 376.66 548.86 390.45 551.14 404.24 549.01 418.03 542.77 431.82 533.25 445.61 521.69 459.4 509.65 473.19 498.71 486.98 482.23 492.33 466.69 498.78 452.18 506.38 438.73 515.13 426.32 525 414.92 535.88 404.45 547.66 394.79 560.17 385.83 573.21 377.41 586.56 369.37 599.99 361.53 613.24 353.73 626.08 345.8 638.29 337.6 649.64 328.98 659.96 312.54 654.3 296.18 647.36 280.03 639.15 264.21 629.74 248.83 619.22 233.98 607.76 219.71 595.52 206.05 582.72 193 569.59 180.57 556.35 168.69 543.25 157.31 530.52 146.35 518.36 135.73 506.95 125.34 496.44 115.09 486.95 119 473.16 123.31 459.37 127.44 445.59 130.85 431.8 133.08 418.01 133.84 404.22 133.03 390.43 130.75 376.64 127.3 362.85 123.15 349.06 118.85 335.27 114.96 321.48 112 307.7 110.37 293.91 110.28 280.12 111.75 266.33 124.88 261.23 138.49 256.74 152.56 252.74 167.07 249.09 181.95 245.66 197.14 242.3 212.55 238.84 228.05 235.16 243.54 231.13 258.89 226.64 273.97 221.59 288.65 215.92 302.83 209.6 316.39 202.6 335.31 190.82 341.36 186.69" stroke-dasharray="6 4" transform="rotate(32.32, 320, 400)" opacity="0.32"></path><path d="M342.49 199.84Q354.44 205.42 365.66 210.44 376.14 214.96 385.89 219.04 394.92 222.76 403.29 226.22 418.23 232.85 432.09 239.76 445.64 248.29 459.93 258.41 467.91 264.58 476.6 271.47 474.45 284.46 476.16 297.46 481.52 310.46 489.91 323.46 500.32 336.46 511.52 349.46 522.18 362.46 531.05 375.46 537.06 388.45 539.51 401.45 538.1 414.45 533.01 427.45 524.83 440.45 514.54 453.45 503.35 466.45 492.6 479.45 476.47 485.4 461.08 492.36 446.51 500.33 432.82 509.29 420.04 519.18 408.17 529.91 397.17 541.34 386.98 553.34 377.52 565.72 368.7 578.29 360.4 590.86 352.47 603.22 344.8 615.17 337.24 626.53 329.65 637.12 321.9 646.81 306.38 641.47 291.13 635.01 276.26 627.43 261.84 618.78 247.93 609.14 234.59 598.62 221.83 587.37 209.65 575.55 198.04 563.35 186.94 550.96 176.31 538.57 166.08 526.39 156.17 514.59 146.49 503.34 136.96 492.78 127.48 483.04 131.59 469.98 135.87 456.92 139.81 443.86 142.93 430.79 144.88 417.73 145.42 404.67 144.48 391.61 142.18 378.55 138.79 365.49 134.71 352.42 130.43 339.36 126.45 326.3 123.24 313.24 121.19 300.18 120.54 287.12 121.36 274.06 133.45 269.79 145.99 266 158.97 262.56 172.4 259.36 186.23 256.26 200.42 253.14 214.91 249.87 229.6 246.34 244.42 242.44 259.26 238.08 274 233.19 288.54 227.72 302.75 221.65 316.55 214.97 336.16 203.76 342.49 199.84" stroke-dasharray="4 10" transform="rotate(36.36, 320, 400)" opacity="0.99"></path><path d="M341.26 212.99Q351.31 218.21 360.72 222.93 369.53 227.19 377.76 231.04 392.53 237.71 406.23 243.87 419.23 250.19 432.57 257.23 439.75 261.4 447.42 266.08 455.7 271.33 464.69 277.19 464.27 289.41 467.19 301.64 473.14 313.87 481.48 326.09 491.36 338.32 501.72 350.54 511.48 362.77 519.61 374.99 525.26 387.22 527.83 399.44 527.06 411.67 523.02 423.9 516.13 436.12 507.13 448.35 496.96 460.57 486.69 472.8 471.12 479.26 456.08 486.6 441.68 494.82 427.98 503.85 415.02 513.65 402.84 524.11 391.43 535.11 380.78 546.52 370.84 558.19 361.55 569.97 352.85 581.67 344.64 593.15 336.82 604.23 329.29 614.76 321.93 624.61 314.63 633.66 300.39 628.65 286.55 622.65 273.18 615.68 260.32 607.76 247.99 598.95 236.21 589.35 224.96 579.07 214.22 568.23 203.97 556.98 194.13 545.47 184.66 533.87 175.48 522.34 166.53 511.03 157.71 500.09 148.95 489.66 140.19 479.85 144.38 467.5 148.53 455.16 152.2 442.82 155.01 430.48 156.66 418.13 156.97 405.79 155.92 393.45 153.62 381.11 150.3 368.76 146.32 356.42 142.09 344.08 138.06 331.74 134.66 319.4 132.23 307.06 131.04 294.71 131.21 282.37 142.26 278.83 153.71 275.62 165.58 272.64 177.87 269.79 190.58 266.96 203.67 264.03 217.11 260.91 230.84 257.5 244.78 253.71 258.88 249.48 273.02 244.76 287.13 239.5 301.11 233.69 314.85 227.32 334.76 216.7 341.26 212.99" stroke-dasharray="3 1" transform="rotate(40.400000000000006, 320, 400)" opacity="0.43"></path><path d="M337.79 226.13Q346.18 231.01 354.08 235.44 368.42 242.9 381.77 249.41 394.32 255.01 406.95 260.57 420.77 266.92 435.9 274.24 444.44 278.64 453.65 283.56 454.72 295.02 458.59 306.49 464.9 317.96 473.07 329.42 482.35 340.89 491.86 352.36 500.75 363.82 508.17 375.29 513.46 386.76 516.1 398.22 515.88 409.69 512.79 421.16 507.13 432.63 499.43 444.09 490.39 455.56 480.85 467.03 466.01 473.87 451.54 481.46 437.52 489.78 424.02 498.76 411.1 508.34 398.81 518.42 387.17 528.91 376.19 539.68 365.86 550.61 356.15 561.57 347.02 572.41 338.42 583.01 330.29 593.24 322.55 602.97 315.12 612.09 307.92 620.52 295.23 615.83 282.99 610.28 271.25 603.89 260.01 596.67 249.27 588.66 239.01 579.95 229.22 570.6 219.85 560.72 210.85 550.43 202.17 539.84 193.74 529.08 185.51 518.28 177.41 507.58 169.36 497.1 161.31 486.96 153.18 477.26 157.33 465.63 161.26 454 164.6 442.38 167.06 430.75 168.4 419.12 168.5 407.49 167.35 395.87 165.06 384.24 161.83 372.61 157.97 360.99 153.83 349.36 149.8 337.73 146.25 326.11 143.51 314.48 146.6 295.57 161.74 285.54 172.49 282.94 183.63 280.36 195.16 277.73 207.09 274.95 219.37 271.95 231.99 268.64 244.9 264.96 258.04 260.86 271.35 256.3 284.76 251.26 298.2 245.71 311.57 239.66 331.29 229.63 337.79 226.13" stroke-dasharray="9 5" transform="rotate(44.44, 320, 400)" opacity="0.09"></path><path d="M332.45 239.28Q346.09 247.75 358.9 255.1 370.95 260.96 382.99 266.25 395.83 271.28 409.61 276.58 417.24 279.57 425.39 282.86 434.12 286.52 443.45 290.58 445.74 301.3 450.3 312.02 456.78 322.74 464.65 333.46 473.27 344.18 481.95 354.9 489.99 365.62 496.74 376.34 501.65 387.06 504.33 397.78 504.57 408.5 502.34 419.22 497.82 429.94 491.38 440.66 483.54 451.38 474.92 462.1 460.98 469.18 447.25 476.88 433.81 485.16 420.74 493.96 408.1 503.21 395.92 512.83 384.26 522.73 373.14 532.81 362.56 542.96 352.54 553.09 343.05 563.07 334.07 572.81 325.57 582.2 317.51 591.15 309.83 599.56 302.48 607.37 291.47 603 280.92 597.89 270.83 592.06 261.18 585.51 251.96 578.27 243.14 570.41 234.69 561.97 226.55 553.04 218.67 543.69 211.01 534.03 203.51 524.16 196.11 514.17 188.76 504.17 181.39 494.27 173.96 484.57 166.41 475.15 170.39 464.24 174.02 453.33 176.99 442.41 179.08 431.5 180.11 420.59 180 409.68 178.76 398.76 176.49 387.85 173.38 376.94 169.66 366.03 165.65 355.12 161.67 344.2 158.03 333.29 155.04 322.38 156.9 304.77 170.18 295.71 179.81 293.39 189.8 291.02 200.14 288.54 210.85 285.87 221.92 282.96 233.34 279.74 245.07 276.17 257.09 272.2 269.36 267.82 281.83 262.99 294.43 257.71 307.12 251.99 326.13 242.56 332.45 239.28" stroke-dasharray="1 5" transform="rotate(48.48, 320, 400)" opacity="0.68"></path><path d="M325.8 252.42Q337.72 260.29 349.27 267.14 360.78 272.63 372.64 277.55 385.7 282.06 399.82 286.68 407.62 289.2 415.9 291.94 424.7 294.94 434.03 298.25 437.26 308.23 442.28 318.22 448.74 328.2 456.2 338.18 464.13 348.16 471.98 358.14 479.2 368.12 485.3 378.11 489.84 388.09 492.52 398.07 493.14 408.05 491.66 418.03 488.18 428.02 482.95 438 476.33 447.98 468.79 457.96 455.86 465.14 443.03 472.8 430.36 480.9 417.92 489.39 405.76 498.21 393.93 507.28 382.48 516.53 371.44 525.88 360.83 535.24 350.66 544.53 340.96 553.66 331.7 562.55 322.89 571.12 314.5 579.31 298.04 588.6 280.66 585.49 272.14 580.19 263.98 574.28 256.15 567.78 248.62 560.73 241.35 553.17 234.28 545.16 227.39 536.75 220.61 528.03 213.9 519.06 207.21 509.92 200.51 500.71 193.73 491.49 186.85 482.36 179.83 473.39 183.53 463.2 186.78 453 189.34 442.81 191.05 432.61 191.78 422.42 191.47 412.22 190.16 402.03 187.93 391.83 184.94 381.64 181.39 371.45 177.54 361.25 173.65 351.06 169.99 340.86 166.82 330.67 167.58 314.32 179.09 306.06 187.64 303.93 196.5 301.71 205.66 299.33 215.16 296.75 224.98 293.92 235.14 290.79 245.61 287.32 256.4 283.5 267.46 279.29 278.78 274.69 290.32 269.7 302.04 264.31 319.84 255.48 325.8 252.42" stroke-dasharray="5 8" transform="rotate(52.52, 320, 400)" opacity="0.95"></path><path d="M318.54 265.56Q329.38 272.83 340.24 279.19 351.58 284.32 363.51 288.89 376.82 292.97 391.2 297.02 399.07 299.16 407.38 301.42 416.13 303.87 425.32 306.55 429.21 315.8 434.46 325.05 440.75 334.3 447.7 343.55 454.91 352.8 461.95 362.05 468.39 371.29 473.87 380.54 478.04 389.79 480.67 399.04 481.59 408.29 480.76 417.54 478.22 426.79 474.12 436.04 468.71 445.28 462.31 454.53 450.5 461.64 438.69 469.12 426.95 476.92 415.32 484.99 403.85 493.28 392.58 501.73 381.57 510.28 370.84 518.86 360.42 527.42 350.34 535.87 340.61 544.16 331.26 552.23 322.27 560 313.66 567.44 297.6 575.91 282.39 573.08 268.54 562.74 255.38 550.92 249.11 544.19 242.96 537.07 236.88 529.58 230.84 521.78 224.8 513.73 218.71 505.49 212.56 497.11 206.3 488.67 199.91 480.22 193.35 471.83 196.68 462.36 199.5 452.89 201.63 443.42 202.96 433.95 203.39 424.48 202.91 415.01 201.54 405.54 199.37 396.07 196.52 386.6 193.17 377.13 189.5 367.66 185.75 358.18 182.13 348.71 178.86 339.24 178.67 324.1 188.53 316.52 203.95 312.31 220.15 307.58 228.74 304.81 237.63 301.77 246.81 298.42 256.29 294.74 266.06 290.73 276.1 286.37 286.39 281.67 296.92 276.63 313.09 268.41 318.54 265.56" stroke-dasharray="6 10" transform="rotate(56.56, 320, 400)" opacity="0.74"></path><path d="M311.43 278.72Q321.68 285.51 332.3 291.26 343.59 296.12 355.78 300.29 369.1 304.01 383.73 307.58 399.77 311.28 417.24 315.43 426.79 332.47 439.14 349.5 451.85 366.53 462.43 383.57 468.78 400.6 469.65 417.63 464.87 434.67 455.38 451.7 434.07 465.75 412.69 480.68 391.58 496.14 371.02 511.75 351.28 527.11 332.53 541.83 314.92 555.54 298.49 567.93 286.07 560.64 274.41 551.63 263.28 540.96 252.41 528.76 241.56 515.27 230.49 500.79 219 485.68 206.92 470.31 212.15 452.84 214.79 435.37 214.31 417.89 210.81 400.42 204.97 382.94 197.96 365.47 191.15 347.99 185.88 330.51 198.55 327.01 211.85 323.03 225.96 318.32 241.01 312.67 257.09 305.93 274.22 298.02 292.36 288.93 311.43 278.72 311.43 278.72 311.43 278.72" stroke-dasharray="6 11" transform="rotate(60.599999999999994, 320, 400)" opacity="0.49"></path><path d="M305.22 291.86Q315.26 298.03 325.88 303.31 337.26 307.82 349.56 311.69 362.9 315.11 377.35 318.28 392.95 321.44 409.68 324.81 419.2 340.38 430.49 355.95 441.7 371.52 450.99 387.09 456.85 402.66 458.33 418.23 455.17 433.8 447.9 449.37 428.98 462.62 409.8 476.42 390.6 490.49 371.63 504.53 353.09 518.26 335.17 531.38 318.02 543.63 301.74 554.79 291.52 548.21 281.69 540.23 272.05 530.87 262.4 520.24 252.57 508.49 242.38 495.81 231.71 482.46 220.44 468.71 224.68 452.72 226.53 436.73 225.67 420.74 222.24 404.75 216.82 388.76 210.27 372.77 203.68 356.78 198.12 340.79 209.15 337.44 220.62 333.55 232.68 328.94 245.46 323.47 259.06 317.05 273.54 309.63 288.93 301.22 305.22 291.86 305.22 291.86 305.22 291.86" stroke-dasharray="5 2" transform="rotate(64.64, 320, 400)" opacity="0.88"></path><path d="M300.57 305.01Q310.57 310.56 321.23 315.37 332.63 319.52 344.86 323.1 357.96 326.25 371.95 329.11 386.82 331.84 402.51 334.62 411.64 348.72 421.74 362.81 431.47 376.91 439.55 391 444.9 405.1 446.82 419.2 445.03 433.29 439.8 447.39 423.3 459.62 406.43 472.13 389.38 484.72 372.3 497.18 355.37 509.29 338.74 520.86 322.55 531.69 306.9 541.64 298.36 535.76 289.91 528.76 281.4 520.65 272.7 511.5 263.69 501.4 254.25 490.48 244.32 478.91 233.83 466.86 237.06 452.38 238.16 437.9 236.98 423.42 233.68 408.94 228.69 394.46 222.68 379.98 216.44 365.5 210.81 351.02 220.35 347.74 230.16 343.91 240.36 339.41 251.06 334.16 262.36 328.1 274.35 321.21 293.82 309.25 300.57 305.01" stroke-dasharray="0 1" transform="rotate(68.68, 320, 400)" opacity="0.29"></path><path d="M297.96 318.15Q307.92 323.09 318.49 327.42 329.7 331.2 341.59 334.5 354.14 337.4 367.37 340 381.21 342.41 395.63 344.76 404.05 357.36 412.87 369.97 421.19 382.58 428.12 395.19 432.93 407.8 435.12 420.41 434.46 433.02 431.02 445.63 416.91 456.65 402.41 467.76 387.62 478.82 372.66 489.69 357.65 500.22 342.71 510.28 327.94 519.74 313.44 528.5 306.1 523.3 298.64 517.23 290.97 510.3 283 502.54 274.68 494.01 265.93 484.78 256.71 474.95 247.01 464.65 249.25 451.7 249.69 438.75 248.26 425.8 245.11 412.86 240.59 399.91 235.17 386.97 230.76 365.92 240.43 354.06 248.98 349.7 257.84 344.71 267.1 339.06 276.83 332.74 292.53 321.96 297.96 318.15" stroke-dasharray="10 6" transform="rotate(72.72, 320, 400)" opacity="0.09"></path><path d="M297.66 331.3Q307.41 335.62 317.64 339.46 328.36 342.87 339.58 345.87 351.28 348.53 363.43 350.91 375.99 353.08 388.91 355.11 396.37 366.21 403.88 377.32 410.84 388.42 416.68 399.53 420.93 410.63 423.25 421.74 423.46 432.85 421.52 443.95 409.73 453.6 397.56 463.23 385.09 472.74 372.37 482.04 359.5 491.03 346.54 499.63 333.58 507.76 320.67 515.35 314.15 510.83 307.4 505.65 300.37 499.83 293.03 493.36 285.33 486.29 277.25 478.65 268.77 470.51 259.89 461.94 261.22 450.55 261.08 439.16 259.48 427.77 256.55 416.39 252.53 405 247.73 393.61 243.47 374.92 251.39 363.96 258.5 359.8 265.76 355.14 273.25 349.95 281.03 344.23 293.41 334.65 297.66 331.3" stroke-dasharray="4 2" transform="rotate(76.76, 320, 400)" opacity="0.69"></path><path d="M299.72 344.44Q308.93 348.15 318.49 351.5 328.39 354.51 338.61 357.2 349.14 359.62 359.93 361.78 370.97 363.75 382.22 365.55 388.56 375.13 394.76 384.72 400.43 394.3 405.24 403.88 408.92 413.46 411.23 423.04 412.04 432.63 411.31 442.21 401.71 450.39 391.79 458.5 381.59 466.46 371.14 474.22 360.5 481.72 349.7 488.91 330.34 497.06 315.7 494.02 309.24 489.22 302.48 483.96 295.43 478.24 288.06 472.09 280.39 465.54 272.4 458.63 272.94 448.83 272.34 439.03 270.66 429.22 267.99 419.42 264.49 409.62 260.36 399.81 256.48 383.54 262.95 373.57 274.76 365.21 286.86 355.68 296.45 347.34 299.72 344.44" stroke-dasharray="5 11" transform="rotate(80.80000000000001, 320, 400)" opacity="0.11"></path><path d="M303.9 357.6Q320.75 363.52 338.38 368.47 356.67 372.57 375.43 375.97 385.48 392.04 393.81 408.11 399.06 424.18 400.38 440.25 385.01 453.51 368.74 466.22 351.73 478.14 334.17 489.05 323.08 482.35 311.11 474.34 298.24 465.08 284.47 454.65 283.46 438.26 279.43 421.86 273.03 405.46 265.32 389.06 274.98 382.84 284.5 375.51 298.99 362.34 303.9 357.6" stroke-dasharray="2 2" transform="rotate(84.84, 320, 400)" opacity="0.96"></path><path d="M309.78 370.74Q323.99 375.53 338.56 379.66 353.41 383.21 368.45 386.23 376.04 399.16 382.37 412.1 386.76 425.03 388.76 437.96 377.2 448.21 365.01 458.03 352.26 467.3 339.02 475.91 329.16 470.62 318.7 464.52 307.65 457.61 296.04 449.93 294.42 436.78 290.86 423.63 285.74 410.48 279.59 397.32 287.34 391.75 294.9 385.45 306.06 374.59 309.78 370.74" stroke-dasharray="6 5" transform="rotate(88.88, 320, 400)" opacity="0.68"></path><path d="M316.73 383.89Q327.71 387.52 338.8 390.76 349.97 393.65 361.16 396.21 366.44 405.96 370.93 415.71 374.35 425.46 376.51 435.21 368.38 442.58 359.88 449.65 351.04 456.39 341.86 462.76 333.65 458.85 325.1 454.5 316.23 449.69 307.06 444.44 305.22 434.56 302.3 424.68 299.17 407.54 305.62 395.21 313.98 386.81 316.73 383.89" stroke-dasharray="1 3" transform="rotate(92.92, 320, 400)" opacity="0.66"></path><path d="M324.03 397.03Q338.76 401.74 353.47 405.78 359.49 418.84 363.68 431.91 353.36 441.08 342.41 449.62 330.21 444.29 317.51 438.17 313.74 424.98 308.31 411.8 320.19 400.9 324.03 397.03" stroke-dasharray="1 1" transform="rotate(96.96, 320, 400)" opacity="0.30"></path></g></svg>